<mxfile host="app.diagrams.net" modified="2023-10-05T19:12:12.098Z" agent="Mozilla/5.0 (Windows NT 10.0; Win64; x64) AppleWebKit/537.36 (KHTML, like Gecko) Chrome/117.0.0.0 Safari/537.36" etag="M85Hy4VA5hKWDxHy9_dv" version="21.7.5" type="google">
  <diagram name="Activity_diagram" id="e7e014a7-5840-1c2e-5031-d8a46d1fe8dd">
    <mxGraphModel grid="1" page="1" gridSize="10" guides="1" tooltips="1" connect="1" arrows="1" fold="1" pageScale="1" pageWidth="1169" pageHeight="826" background="none" math="0" shadow="0">
      <root>
        <mxCell id="0" />
        <mxCell id="1" parent="0" />
        <mxCell id="2" value="Клиент" style="swimlane;whiteSpace=wrap;fillColor=#f5f5f5;fontColor=#333333;strokeColor=#666666;" vertex="1" parent="1">
          <mxGeometry x="164.5" y="128" width="280" height="682" as="geometry" />
        </mxCell>
        <mxCell id="oGNQe-Uqf5Ljq5fiT1l4-42" value="Сделать заказ" style="rounded=1;whiteSpace=wrap;html=1;fillColor=#f5f5f5;fontColor=#333333;strokeColor=#666666;" vertex="1" parent="2">
          <mxGeometry x="75.5" y="152" width="120" height="40" as="geometry" />
        </mxCell>
        <mxCell id="oGNQe-Uqf5Ljq5fiT1l4-53" style="edgeStyle=orthogonalEdgeStyle;rounded=0;orthogonalLoop=1;jettySize=auto;html=1;" edge="1" parent="2" source="oGNQe-Uqf5Ljq5fiT1l4-44" target="oGNQe-Uqf5Ljq5fiT1l4-42">
          <mxGeometry relative="1" as="geometry" />
        </mxCell>
        <mxCell id="oGNQe-Uqf5Ljq5fiT1l4-44" value="" style="ellipse;whiteSpace=wrap;html=1;aspect=fixed;strokeColor=#000000;fillColor=#000000;" vertex="1" parent="2">
          <mxGeometry x="119.5" y="80" width="32" height="32" as="geometry" />
        </mxCell>
        <mxCell id="oGNQe-Uqf5Ljq5fiT1l4-72" style="edgeStyle=orthogonalEdgeStyle;rounded=0;orthogonalLoop=1;jettySize=auto;html=1;" edge="1" parent="2" source="oGNQe-Uqf5Ljq5fiT1l4-47" target="oGNQe-Uqf5Ljq5fiT1l4-48">
          <mxGeometry relative="1" as="geometry" />
        </mxCell>
        <mxCell id="oGNQe-Uqf5Ljq5fiT1l4-47" value="Оплата счета" style="rounded=1;whiteSpace=wrap;html=1;fillColor=#f5f5f5;fontColor=#333333;strokeColor=#666666;" vertex="1" parent="2">
          <mxGeometry x="80" y="265" width="120" height="40" as="geometry" />
        </mxCell>
        <mxCell id="oGNQe-Uqf5Ljq5fiT1l4-48" value="" style="rhombus;whiteSpace=wrap;html=1;" vertex="1" parent="2">
          <mxGeometry x="120" y="372" width="40" height="40" as="geometry" />
        </mxCell>
        <mxCell id="3" value="Менеджер" style="swimlane;whiteSpace=wrap;fillColor=#dae8fc;strokeColor=#6c8ebf;" vertex="1" parent="1">
          <mxGeometry x="444.5" y="128" width="280" height="682" as="geometry" />
        </mxCell>
        <mxCell id="oGNQe-Uqf5Ljq5fiT1l4-45" value="Принять заказ" style="rounded=1;whiteSpace=wrap;html=1;fillColor=#dae8fc;strokeColor=#6c8ebf;" vertex="1" parent="3">
          <mxGeometry x="85.5" y="152" width="120" height="40" as="geometry" />
        </mxCell>
        <mxCell id="oGNQe-Uqf5Ljq5fiT1l4-52" value="Отмена заказа" style="rounded=1;whiteSpace=wrap;html=1;fillColor=#dae8fc;strokeColor=#6c8ebf;" vertex="1" parent="3">
          <mxGeometry x="80.5" y="592" width="120" height="40" as="geometry" />
        </mxCell>
        <mxCell id="oGNQe-Uqf5Ljq5fiT1l4-79" value="Передает накладную" style="rounded=1;whiteSpace=wrap;html=1;fillColor=#dae8fc;strokeColor=#6c8ebf;" vertex="1" parent="3">
          <mxGeometry x="85.5" y="452" width="120" height="40" as="geometry" />
        </mxCell>
        <mxCell id="oGNQe-Uqf5Ljq5fiT1l4-83" style="edgeStyle=orthogonalEdgeStyle;rounded=0;orthogonalLoop=1;jettySize=auto;html=1;fillColor=#f5f5f5;strokeColor=#666666;exitX=0.5;exitY=1;exitDx=0;exitDy=0;" edge="1" parent="3" source="oGNQe-Uqf5Ljq5fiT1l4-81">
          <mxGeometry relative="1" as="geometry">
            <mxPoint x="-124.49999999999989" y="482" as="sourcePoint" />
            <mxPoint x="585.5" y="522.0000000000002" as="targetPoint" />
            <Array as="points">
              <mxPoint x="-140" y="522" />
            </Array>
          </mxGeometry>
        </mxCell>
        <mxCell id="oGNQe-Uqf5Ljq5fiT1l4-81" value="Передает накладную" style="rounded=1;whiteSpace=wrap;html=1;fillColor=#f5f5f5;fontColor=#333333;strokeColor=#666666;" vertex="1" parent="3">
          <mxGeometry x="-200" y="452" width="120" height="40" as="geometry" />
        </mxCell>
        <mxCell id="oGNQe-Uqf5Ljq5fiT1l4-82" style="edgeStyle=orthogonalEdgeStyle;rounded=0;orthogonalLoop=1;jettySize=auto;html=1;entryX=1;entryY=0.5;entryDx=0;entryDy=0;" edge="1" parent="3" source="oGNQe-Uqf5Ljq5fiT1l4-79" target="oGNQe-Uqf5Ljq5fiT1l4-81">
          <mxGeometry relative="1" as="geometry" />
        </mxCell>
        <mxCell id="4" value="Бухгалтер" style="swimlane;whiteSpace=wrap;fillColor=#d5e8d4;strokeColor=#82b366;" vertex="1" parent="1">
          <mxGeometry x="724.5" y="128" width="280" height="682" as="geometry" />
        </mxCell>
        <mxCell id="oGNQe-Uqf5Ljq5fiT1l4-43" value="" style="ellipse;html=1;shape=endState;fillColor=#000000;strokeColor=#000000;" vertex="1" parent="4">
          <mxGeometry x="136" y="597" width="30" height="30" as="geometry" />
        </mxCell>
        <mxCell id="oGNQe-Uqf5Ljq5fiT1l4-46" value="Оформляет счет" style="rounded=1;whiteSpace=wrap;html=1;fillColor=#d5e8d4;strokeColor=#82b366;" vertex="1" parent="4">
          <mxGeometry x="80" y="152" width="120" height="40" as="geometry" />
        </mxCell>
        <mxCell id="oGNQe-Uqf5Ljq5fiT1l4-49" value="Оформление накладной" style="rounded=1;whiteSpace=wrap;html=1;fillColor=#d5e8d4;strokeColor=#82b366;" vertex="1" parent="4">
          <mxGeometry x="80" y="372" width="120" height="40" as="geometry" />
        </mxCell>
        <mxCell id="oGNQe-Uqf5Ljq5fiT1l4-41" value="Кладовщик" style="swimlane;whiteSpace=wrap;fillColor=#ffe6cc;strokeColor=#d79b00;" vertex="1" parent="1">
          <mxGeometry x="1004.5" y="128" width="280" height="682" as="geometry" />
        </mxCell>
        <mxCell id="oGNQe-Uqf5Ljq5fiT1l4-50" value="Подготовка заказа к выдаче" style="rounded=1;whiteSpace=wrap;html=1;fillColor=#ffe6cc;strokeColor=#d79b00;" vertex="1" parent="oGNQe-Uqf5Ljq5fiT1l4-41">
          <mxGeometry x="80" y="512" width="120" height="40" as="geometry" />
        </mxCell>
        <mxCell id="oGNQe-Uqf5Ljq5fiT1l4-51" value="Выдача заказа" style="rounded=1;whiteSpace=wrap;html=1;fillColor=#ffe6cc;strokeColor=#d79b00;" vertex="1" parent="oGNQe-Uqf5Ljq5fiT1l4-41">
          <mxGeometry x="80" y="592" width="120" height="40" as="geometry" />
        </mxCell>
        <mxCell id="oGNQe-Uqf5Ljq5fiT1l4-65" value="" style="endArrow=open;endFill=1;endSize=12;html=1;rounded=0;" edge="1" parent="oGNQe-Uqf5Ljq5fiT1l4-41" source="oGNQe-Uqf5Ljq5fiT1l4-50" target="oGNQe-Uqf5Ljq5fiT1l4-51">
          <mxGeometry width="160" relative="1" as="geometry">
            <mxPoint x="-49.5" y="542" as="sourcePoint" />
            <mxPoint x="55.5" y="542" as="targetPoint" />
          </mxGeometry>
        </mxCell>
        <mxCell id="oGNQe-Uqf5Ljq5fiT1l4-86" style="edgeStyle=orthogonalEdgeStyle;rounded=0;orthogonalLoop=1;jettySize=auto;html=1;curved=0;" edge="1" parent="oGNQe-Uqf5Ljq5fiT1l4-41" source="oGNQe-Uqf5Ljq5fiT1l4-84" target="oGNQe-Uqf5Ljq5fiT1l4-85">
          <mxGeometry relative="1" as="geometry">
            <Array as="points">
              <mxPoint x="56" y="472" />
              <mxPoint x="56" y="472" />
            </Array>
          </mxGeometry>
        </mxCell>
        <mxCell id="oGNQe-Uqf5Ljq5fiT1l4-87" style="edgeStyle=orthogonalEdgeStyle;rounded=0;orthogonalLoop=1;jettySize=auto;html=1;curved=0;" edge="1" parent="oGNQe-Uqf5Ljq5fiT1l4-41" source="oGNQe-Uqf5Ljq5fiT1l4-84" target="oGNQe-Uqf5Ljq5fiT1l4-50">
          <mxGeometry relative="1" as="geometry">
            <Array as="points">
              <mxPoint x="46" y="532" />
              <mxPoint x="46" y="532" />
            </Array>
          </mxGeometry>
        </mxCell>
        <mxCell id="oGNQe-Uqf5Ljq5fiT1l4-84" value="" style="html=1;points=[[0,0,0,0,5],[0,1,0,0,-5],[1,0,0,0,5],[1,1,0,0,-5]];perimeter=orthogonalPerimeter;outlineConnect=0;targetShapes=umlLifeline;portConstraint=eastwest;newEdgeStyle={&quot;curved&quot;:0,&quot;rounded&quot;:0};fillColor=#000000;" vertex="1" parent="oGNQe-Uqf5Ljq5fiT1l4-41">
          <mxGeometry x="25.5" y="450" width="10" height="122" as="geometry" />
        </mxCell>
        <mxCell id="oGNQe-Uqf5Ljq5fiT1l4-85" value="Получение накладной" style="rounded=1;whiteSpace=wrap;html=1;fillColor=#ffe6cc;strokeColor=#d79b00;" vertex="1" parent="oGNQe-Uqf5Ljq5fiT1l4-41">
          <mxGeometry x="80" y="452" width="120" height="40" as="geometry" />
        </mxCell>
        <mxCell id="oGNQe-Uqf5Ljq5fiT1l4-66" value="" style="endArrow=open;endFill=1;endSize=12;html=1;rounded=0;" edge="1" parent="1" source="oGNQe-Uqf5Ljq5fiT1l4-51" target="oGNQe-Uqf5Ljq5fiT1l4-43">
          <mxGeometry width="160" relative="1" as="geometry">
            <mxPoint x="965" y="560" as="sourcePoint" />
            <mxPoint x="1070" y="560" as="targetPoint" />
          </mxGeometry>
        </mxCell>
        <mxCell id="oGNQe-Uqf5Ljq5fiT1l4-68" style="edgeStyle=orthogonalEdgeStyle;rounded=0;orthogonalLoop=1;jettySize=auto;html=1;" edge="1" parent="1" source="oGNQe-Uqf5Ljq5fiT1l4-48" target="oGNQe-Uqf5Ljq5fiT1l4-49">
          <mxGeometry relative="1" as="geometry" />
        </mxCell>
        <mxCell id="oGNQe-Uqf5Ljq5fiT1l4-69" value="Да" style="edgeLabel;html=1;align=center;verticalAlign=middle;resizable=0;points=[];" connectable="0" vertex="1" parent="oGNQe-Uqf5Ljq5fiT1l4-68">
          <mxGeometry x="0.0854" y="2" relative="1" as="geometry">
            <mxPoint x="1" y="-8" as="offset" />
          </mxGeometry>
        </mxCell>
        <mxCell id="oGNQe-Uqf5Ljq5fiT1l4-70" style="edgeStyle=orthogonalEdgeStyle;rounded=0;orthogonalLoop=1;jettySize=auto;html=1;exitX=0;exitY=0.5;exitDx=0;exitDy=0;entryX=0;entryY=0.5;entryDx=0;entryDy=0;" edge="1" parent="1" source="oGNQe-Uqf5Ljq5fiT1l4-48" target="oGNQe-Uqf5Ljq5fiT1l4-52">
          <mxGeometry relative="1" as="geometry">
            <Array as="points">
              <mxPoint x="200" y="520" />
              <mxPoint x="200" y="740" />
            </Array>
          </mxGeometry>
        </mxCell>
        <mxCell id="oGNQe-Uqf5Ljq5fiT1l4-71" value="Нет" style="edgeLabel;html=1;align=center;verticalAlign=middle;resizable=0;points=[];" connectable="0" vertex="1" parent="oGNQe-Uqf5Ljq5fiT1l4-70">
          <mxGeometry x="0.0226" y="2" relative="1" as="geometry">
            <mxPoint x="3" y="-8" as="offset" />
          </mxGeometry>
        </mxCell>
        <mxCell id="oGNQe-Uqf5Ljq5fiT1l4-73" style="edgeStyle=orthogonalEdgeStyle;rounded=0;orthogonalLoop=1;jettySize=auto;html=1;" edge="1" parent="1" source="oGNQe-Uqf5Ljq5fiT1l4-42" target="oGNQe-Uqf5Ljq5fiT1l4-45">
          <mxGeometry relative="1" as="geometry" />
        </mxCell>
        <mxCell id="oGNQe-Uqf5Ljq5fiT1l4-74" style="edgeStyle=orthogonalEdgeStyle;rounded=0;orthogonalLoop=1;jettySize=auto;html=1;" edge="1" parent="1" source="oGNQe-Uqf5Ljq5fiT1l4-45" target="oGNQe-Uqf5Ljq5fiT1l4-46">
          <mxGeometry relative="1" as="geometry" />
        </mxCell>
        <mxCell id="oGNQe-Uqf5Ljq5fiT1l4-75" style="edgeStyle=orthogonalEdgeStyle;rounded=0;orthogonalLoop=1;jettySize=auto;html=1;" edge="1" parent="1" source="oGNQe-Uqf5Ljq5fiT1l4-46" target="oGNQe-Uqf5Ljq5fiT1l4-47">
          <mxGeometry relative="1" as="geometry">
            <Array as="points">
              <mxPoint x="880" y="360" />
              <mxPoint x="305" y="360" />
            </Array>
          </mxGeometry>
        </mxCell>
        <mxCell id="oGNQe-Uqf5Ljq5fiT1l4-76" style="edgeStyle=orthogonalEdgeStyle;rounded=0;orthogonalLoop=1;jettySize=auto;html=1;" edge="1" parent="1" source="oGNQe-Uqf5Ljq5fiT1l4-52" target="oGNQe-Uqf5Ljq5fiT1l4-43">
          <mxGeometry relative="1" as="geometry" />
        </mxCell>
        <mxCell id="oGNQe-Uqf5Ljq5fiT1l4-80" style="edgeStyle=orthogonalEdgeStyle;rounded=0;orthogonalLoop=1;jettySize=auto;html=1;entryX=1;entryY=0.5;entryDx=0;entryDy=0;" edge="1" parent="1" source="oGNQe-Uqf5Ljq5fiT1l4-49" target="oGNQe-Uqf5Ljq5fiT1l4-79">
          <mxGeometry relative="1" as="geometry">
            <Array as="points">
              <mxPoint x="865" y="600" />
            </Array>
          </mxGeometry>
        </mxCell>
      </root>
    </mxGraphModel>
  </diagram>
</mxfile>
